<svg width="22" height="22" viewBox="0 0 22 22" fill="none" xmlns="http://www.w3.org/2000/svg">
<path fill-rule="evenodd" clip-rule="evenodd" d="M10.9293 21.8585C16.9653 21.8585 21.8585 16.9653 21.8585 10.9293C21.8585 4.8932 16.9653 0 10.9293 0C4.8932 0 0 4.8932 0 10.9293C0 16.9653 4.8932 21.8585 10.9293 21.8585ZM13.4394 6.98529C12.8825 6.96045 12.7149 6.95424 11.299 6.95424C9.8832 6.95424 9.71554 6.96045 9.15872 6.98529C8.64331 7.00806 8.3618 7.095 8.1755 7.16744C7.92918 7.26266 7.75324 7.37651 7.56694 7.5628C7.38272 7.74703 7.2668 7.92504 7.17158 8.17136C7.09914 8.35766 7.0122 8.6371 6.98943 9.15458C6.96459 9.7114 6.95838 9.87906 6.95838 11.2949C6.95838 12.7087 6.96459 12.8763 6.98943 13.4352C7.0122 13.9506 7.09914 14.2321 7.17158 14.4184C7.2668 14.6648 7.38065 14.8407 7.56694 15.027C7.75117 15.2112 7.92918 15.3271 8.1755 15.4223C8.3618 15.4948 8.64124 15.5817 9.15872 15.6045C9.71554 15.6293 9.8832 15.6356 11.299 15.6356C12.7128 15.6356 12.8805 15.6293 13.4394 15.6045C13.9548 15.5817 14.2363 15.4948 14.4226 15.4223C14.6689 15.3271 14.8448 15.2133 15.0311 15.027C15.2154 14.8428 15.3313 14.6648 15.4265 14.4184C15.4989 14.2321 15.5859 13.9527 15.6086 13.4352C15.6335 12.8784 15.6397 12.7107 15.6397 11.2949C15.6397 9.88113 15.6335 9.71346 15.6086 9.15458C15.5859 8.63917 15.4989 8.35766 15.4265 8.17136C15.3313 7.92504 15.2174 7.7491 15.0311 7.5628C14.8469 7.37858 14.6689 7.26266 14.4226 7.16744C14.2363 7.095 13.9568 7.00806 13.4394 6.98529ZM9.11525 6.03105C9.68035 6.00621 9.86043 6 11.299 6C12.7376 6 12.9177 6.00621 13.4849 6.03312C14.0479 6.05796 14.4329 6.14904 14.7703 6.27944C15.1181 6.41399 15.4141 6.59614 15.708 6.89007C16.004 7.184 16.1841 7.48 16.3145 7.83189C16.4449 8.16722 16.536 8.5543 16.5608 9.11732C16.5857 9.68242 16.5919 9.8625 16.5919 11.3011C16.5919 12.7397 16.5857 12.9198 16.5608 13.4849C16.536 14.0479 16.4449 14.4329 16.3145 14.7703C16.1799 15.1181 15.9978 15.4141 15.7039 15.708C15.4099 16.0019 15.1139 16.1841 14.7662 16.3186C14.4309 16.449 14.0438 16.5401 13.4807 16.565C12.9157 16.5898 12.7356 16.596 11.297 16.596C9.85836 16.596 9.67828 16.5898 9.11318 16.565C8.55016 16.5401 8.16515 16.449 7.82775 16.3186C7.48 16.1841 7.184 16.0019 6.89007 15.708C6.59407 15.4141 6.41399 15.1181 6.27737 14.7682C6.14697 14.4329 6.05589 14.0458 6.03105 13.4828C6.00621 12.9177 6 12.7376 6 11.299C6 9.86043 6.00621 9.68035 6.03105 9.11318C6.05589 8.55016 6.14697 8.16515 6.27737 7.82775C6.41399 7.48 6.59407 7.184 6.89007 6.89007C7.184 6.59407 7.48 6.41399 7.82982 6.27737C8.16515 6.14697 8.55223 6.05589 9.11525 6.03105ZM11.299 8.57735C9.79626 8.57735 8.57707 9.79654 8.57707 11.2993C8.57707 12.8021 9.79626 14.0213 11.299 14.0213C12.8018 14.0213 14.021 12.8021 14.021 11.2993C14.021 9.79654 12.8018 8.57735 11.299 8.57735ZM11.299 13.065C10.3241 13.065 9.53338 12.2743 9.53338 11.2993C9.53338 10.3244 10.3241 9.53366 11.299 9.53366C12.274 9.53366 13.0647 10.3244 13.0647 11.2993C13.0647 12.2743 12.274 13.065 11.299 13.065ZM14.1286 9.10478C14.4785 9.10478 14.7641 8.8212 14.7641 8.46931C14.7641 8.11949 14.4785 7.83384 14.1286 7.83384C13.7788 7.83384 13.4932 8.11742 13.4932 8.46931C13.4932 8.81913 13.7767 9.10478 14.1286 9.10478Z" fill="#424242"/>
</svg>
