<svg width="23" height="22" viewBox="0 0 23 22" fill="none" xmlns="http://www.w3.org/2000/svg">
<path fill-rule="evenodd" clip-rule="evenodd" d="M11.2605 21.8585C17.4794 21.8585 22.5209 16.9653 22.5209 10.9293C22.5209 4.8932 17.4794 0 11.2605 0C5.04148 0 0 4.8932 0 10.9293C0 16.9653 5.04148 21.8585 11.2605 21.8585ZM11.3933 6H13.0678C13.0678 7.35164 14.0553 8.45753 15.3147 8.5036V10.316C14.4989 10.3007 13.7261 10.0088 13.0964 9.51732V13.219C13.0964 15.0775 11.6939 16.5981 9.96221 16.5981C8.2305 16.5981 6.82797 15.0929 6.82797 13.219C6.82797 11.3605 8.20188 9.87059 9.90496 9.83989V11.6523C9.13213 11.683 8.50242 12.3742 8.50242 13.219C8.50242 14.0791 9.14644 14.7857 9.94789 14.7857C10.7493 14.7857 11.3933 14.0791 11.3933 13.219V6Z" fill="#424242"/>
</svg>
