<svg width="23" height="22" viewBox="0 0 23 22" fill="none" xmlns="http://www.w3.org/2000/svg">
<path fill-rule="evenodd" clip-rule="evenodd" d="M11.2605 21.8585C17.4794 21.8585 22.5209 16.9653 22.5209 10.9293C22.5209 4.8932 17.4794 0 11.2605 0C5.04148 0 0 4.8932 0 10.9293C0 16.9653 5.04148 21.8585 11.2605 21.8585ZM16.329 7.59377C16.6876 7.9359 16.8041 8.71509 16.8041 8.71509C16.8041 8.71509 16.9228 9.63112 16.9228 10.545V11.4014C16.9228 12.3174 16.8041 13.2313 16.8041 13.2313C16.8041 13.2313 16.6876 14.0104 16.329 14.3526C15.9198 14.7583 15.4672 14.8003 15.2113 14.824C15.1832 14.8266 15.1574 14.8289 15.1344 14.8316C13.4671 14.9441 10.9614 14.9486 10.9614 14.9486C10.9614 14.9486 7.86195 14.9221 6.90719 14.836C6.86075 14.8275 6.80419 14.8209 6.74005 14.8135C6.4375 14.7786 5.96614 14.7241 5.59148 14.3526C5.2352 14.0104 5.11876 13.2313 5.11876 13.2313C5.11876 13.2313 5 12.3152 5 11.4014V10.545C5 9.63112 5.12109 8.71509 5.12109 8.71509C5.12109 8.71509 5.2352 7.9359 5.59381 7.59377C6.00299 7.18802 6.45565 7.14609 6.71158 7.12239C6.73967 7.11978 6.76539 7.1174 6.78842 7.11478C8.45576 7 10.9591 7 10.9591 7H10.9637C10.9637 7 13.4671 7 15.1344 7.11478C15.1574 7.1174 15.1832 7.11978 15.2113 7.12239C15.4672 7.14609 15.9198 7.18802 16.329 7.59377ZM9.72954 9.26471V12.441L12.9501 10.8584L9.72954 9.26471Z" fill="#424242"/>
</svg>
