<svg width="16" height="16" viewBox="0 0 16 16" fill="none" xmlns="http://www.w3.org/2000/svg">
<path d="M14.872 2.48094C15.1523 2.91207 15.3604 3.38613 15.4879 3.88436C16.1467 6.32476 15.137 9.49416 12.6616 11.9852C12.1293 12.5243 11.5457 13.01 10.919 13.4354L10.6227 13.6304C10.4239 13.7551 10.2329 13.876 10.0262 13.9851C9.72747 14.1514 9.4204 14.3024 9.10622 14.4373C8.8996 14.5231 8.69689 14.6089 8.49417 14.679C8.19056 14.7904 7.88077 14.8841 7.56635 14.9597L6.9543 15.0884L6.65023 15.1351C6.44751 15.1624 6.26039 15.1819 6.04987 15.1897H5.7497C5.55478 15.1897 5.35986 15.1897 5.16494 15.1897L4.88035 15.1663C4.51029 15.1228 4.14495 15.0459 3.7888 14.9363C3.09287 14.7302 2.45207 14.3705 1.91367 13.8838C-0.651477 11.5447 0.00345469 6.86664 3.37557 3.49062C3.90778 2.95158 4.49142 2.46587 5.11816 2.04042L5.43003 1.8338C5.61325 1.71685 5.80037 1.6077 5.9836 1.50244C6.29937 1.33481 6.61124 1.17887 6.92701 1.03853C7.10634 0.960563 7.28177 0.890389 7.46109 0.828014C7.79151 0.705118 8.12861 0.600999 8.47078 0.516147C8.67349 0.465468 8.88011 0.422585 9.07893 0.387499L9.3869 0.340714C9.56233 0.317324 9.73386 0.301734 9.90539 0.290039H9.98726H10.3498C10.5252 0.290039 10.6968 0.290039 10.8683 0.290039C12.0704 0.34341 13.2179 0.807081 14.1196 1.6038C14.4068 1.86283 14.6597 2.15761 14.872 2.48094Z" fill="#FF005C"/>
</svg>
