<svg width="22" height="22" viewBox="0 0 22 22" fill="none" xmlns="http://www.w3.org/2000/svg">
<path fill-rule="evenodd" clip-rule="evenodd" d="M10.9293 21.8585C16.9653 21.8585 21.8585 16.9653 21.8585 10.9293C21.8585 4.8932 16.9653 0 10.9293 0C4.8932 0 0 4.8932 0 10.9293C0 16.9653 4.8932 21.8585 10.9293 21.8585ZM11.299 6C14.2256 6 16.5981 8.37246 16.5981 11.299C16.5981 13.9439 14.6603 16.1362 12.127 16.5337V12.8308H13.3617L13.5967 11.299H12.127V10.3055C12.127 9.88599 12.3323 9.47749 12.9906 9.47749H13.6588V8.17343C13.6588 8.17343 13.0522 8.06994 12.4726 8.06994C11.2622 8.06994 10.4711 8.80352 10.4711 10.1316V11.299H9.1256V12.8308H10.4711V16.5337C7.93777 16.1362 6 13.9439 6 11.299C6 8.37246 8.37246 6 11.299 6Z" fill="#424242"/>
</svg>
