<svg width="142" height="101" viewBox="0 0 142 101" fill="none" xmlns="http://www.w3.org/2000/svg">
<path d="M1.87001 93.6631V80.4817H4.97151V81.8044C5.44282 81.3483 5.93693 80.9834 6.45385 80.7098C6.98597 80.4209 7.55609 80.2765 8.16423 80.2765C8.71156 80.2765 9.14485 80.4133 9.46413 80.687C9.7834 80.9454 10.0191 81.2951 10.1711 81.736C10.3231 82.1769 10.3991 82.6558 10.3991 83.1727V93.6631H7.29764V83.7885C7.29764 83.3932 7.23682 83.0891 7.1152 82.8762C6.99357 82.6634 6.75791 82.557 6.40824 82.557C6.19539 82.557 5.95973 82.6178 5.70128 82.7394C5.45802 82.861 5.21477 83.0131 4.97151 83.1955V93.6631H1.87001ZM15.2255 93.8683C14.6325 93.8683 14.1232 93.7163 13.6975 93.4122C13.2718 93.093 12.9449 92.6977 12.7169 92.2264C12.4888 91.7399 12.3748 91.2381 12.3748 90.7212C12.3748 89.9002 12.5268 89.2085 12.8309 88.646C13.135 88.0834 13.5379 87.6121 14.0396 87.232C14.5413 86.8519 15.1114 86.5251 15.75 86.2514C16.3885 85.9625 17.0347 85.7041 17.6884 85.476V84.3358C17.6884 83.9557 17.658 83.6364 17.5972 83.378C17.5516 83.1195 17.4528 82.9219 17.3007 82.785C17.1639 82.6482 16.9434 82.5798 16.6394 82.5798C16.3809 82.5798 16.1681 82.6406 16.0008 82.7622C15.8488 82.8839 15.7348 83.0587 15.6588 83.2867C15.5979 83.4996 15.5599 83.7504 15.5447 84.0393L15.4991 84.8375L12.5573 84.7235C12.6029 83.2031 12.9753 82.0857 13.6747 81.3711C14.3893 80.6413 15.4687 80.2765 16.913 80.2765C18.2357 80.2765 19.1936 80.6413 19.7865 81.3711C20.3946 82.1009 20.6987 83.0891 20.6987 84.3358V90.4248C20.6987 90.9113 20.7063 91.3522 20.7215 91.7475C20.7519 92.1427 20.7823 92.5 20.8127 92.8193C20.8583 93.1386 20.8963 93.4198 20.9267 93.6631H18.1445C18.0989 93.359 18.0381 93.0169 17.9621 92.6369C17.9013 92.2416 17.8556 91.9527 17.8252 91.7703C17.6732 92.3024 17.3843 92.7889 16.9586 93.2298C16.5329 93.6555 15.9552 93.8683 15.2255 93.8683ZM16.3657 91.565C16.5634 91.565 16.7458 91.5194 16.913 91.4282C17.0955 91.3218 17.2551 91.2001 17.3919 91.0633C17.5288 90.9265 17.6276 90.8048 17.6884 90.6984V87.0268C17.3539 87.2244 17.0347 87.4221 16.7306 87.6197C16.4417 87.8174 16.1833 88.0378 15.9552 88.2811C15.7424 88.5091 15.5751 88.76 15.4535 89.0336C15.3471 89.3073 15.2939 89.6266 15.2939 89.9915C15.2939 90.478 15.3851 90.8657 15.5675 91.1545C15.7652 91.4282 16.0312 91.565 16.3657 91.565ZM26.9507 93.8683C25.9321 93.8683 25.1111 93.6783 24.4877 93.2982C23.8796 92.9029 23.4311 92.348 23.1422 91.6334C22.8686 90.9037 22.7317 90.0447 22.7317 89.0564V85.0883C22.7317 84.0697 22.8686 83.2031 23.1422 82.4886C23.4311 81.774 23.8872 81.2267 24.5105 80.8466C25.1339 80.4665 25.9473 80.2765 26.9507 80.2765C27.8933 80.2765 28.6611 80.4285 29.254 80.7326C29.8621 81.0214 30.303 81.4699 30.5767 82.0781C30.8504 82.671 30.9872 83.4236 30.9872 84.3358V85.4304H28.0681V84.2674C28.0681 83.8113 28.0301 83.454 27.9541 83.1955C27.8933 82.9219 27.7793 82.7318 27.612 82.6254C27.4448 82.5038 27.2243 82.443 26.9507 82.443C26.677 82.443 26.4566 82.519 26.2893 82.671C26.1221 82.8078 26.0005 83.0359 25.9245 83.3552C25.8636 83.6744 25.8332 84.1153 25.8332 84.6779V89.5125C25.8332 90.3639 25.9245 90.9417 26.1069 91.2457C26.2893 91.5346 26.5782 91.679 26.9735 91.679C27.2776 91.679 27.5056 91.6106 27.6576 91.4738C27.8249 91.337 27.9313 91.1393 27.9769 90.8809C28.0377 90.6072 28.0681 90.2803 28.0681 89.9002V88.4863H30.9872V89.7406C30.9872 90.6224 30.8428 91.375 30.5539 91.9983C30.2802 92.6217 29.8393 93.093 29.2312 93.4122C28.6383 93.7163 27.8781 93.8683 26.9507 93.8683ZM33.0723 93.6631V75.1909H36.1738V81.736C36.6299 81.2799 37.124 80.9226 37.6561 80.6641C38.2034 80.4057 38.7964 80.2765 39.4349 80.2765C39.967 80.2765 40.3927 80.4133 40.712 80.687C41.0313 80.9454 41.2669 81.2951 41.4189 81.736C41.571 82.1769 41.647 82.6558 41.647 83.1727V93.6631H38.5455V83.7885C38.5455 83.3932 38.4847 83.0891 38.3631 82.8762C38.2414 82.6634 38.0058 82.557 37.6561 82.557C37.4433 82.557 37.2 82.6178 36.9263 82.7394C36.6679 82.861 36.417 83.0207 36.1738 83.2183V93.6631H33.0723ZM47.9079 93.8683C46.9501 93.8683 46.1595 93.6935 45.5362 93.3438C44.9128 92.9789 44.4415 92.4544 44.1223 91.7703C43.8182 91.0861 43.6661 90.2575 43.6661 89.2845V84.8603C43.6661 83.8873 43.8182 83.0587 44.1223 82.3745C44.4415 81.6904 44.9128 81.1735 45.5362 80.8238C46.1595 80.4589 46.9501 80.2765 47.9079 80.2765C48.8657 80.2765 49.6563 80.4589 50.2796 80.8238C50.9182 81.1735 51.3895 81.6904 51.6936 82.3745C52.0128 83.0587 52.1725 83.8873 52.1725 84.8603V89.2845C52.1725 90.2575 52.0128 91.0861 51.6936 91.7703C51.3895 92.4544 50.9182 92.9789 50.2796 93.3438C49.6563 93.6935 48.8657 93.8683 47.9079 93.8683ZM47.9307 91.7246C48.2804 91.7246 48.5388 91.6258 48.7061 91.4282C48.8733 91.2305 48.9797 90.9645 49.0254 90.63C49.071 90.2803 49.0938 89.9002 49.0938 89.4897V84.6551C49.0938 84.2446 49.071 83.8721 49.0254 83.5376C48.9797 83.2031 48.8733 82.9371 48.7061 82.7394C48.5388 82.5266 48.2804 82.4201 47.9307 82.4201C47.581 82.4201 47.3226 82.5266 47.1553 82.7394C46.9881 82.9371 46.8741 83.2031 46.8133 83.5376C46.7676 83.8721 46.7448 84.2446 46.7448 84.6551V89.4897C46.7448 89.9002 46.7676 90.2803 46.8133 90.63C46.8741 90.9645 46.9881 91.2305 47.1553 91.4282C47.3226 91.6258 47.581 91.7246 47.9307 91.7246ZM54.2951 97.9961V80.4817H57.3966V81.4851C57.7767 81.1203 58.1948 80.8314 58.6509 80.6185C59.107 80.3905 59.5859 80.2765 60.0876 80.2765C60.6806 80.2765 61.1671 80.4133 61.5472 80.687C61.9273 80.9606 62.2237 81.3255 62.4366 81.7816C62.6494 82.2225 62.7938 82.7014 62.8699 83.2183C62.9611 83.72 63.0067 84.2066 63.0067 84.6779V89.1477C63.0067 90.0143 62.9003 90.8048 62.6874 91.5194C62.4898 92.234 62.1629 92.8041 61.7068 93.2298C61.2659 93.6555 60.673 93.8683 59.928 93.8683C59.4567 93.8683 59.0082 93.7543 58.5825 93.5263C58.172 93.2982 57.7767 93.0093 57.3966 92.6597V97.9961H54.2951ZM58.7649 91.7018C59.0994 91.7018 59.3427 91.5954 59.4947 91.3826C59.6619 91.1545 59.7684 90.8581 59.814 90.4932C59.8748 90.1131 59.9052 89.7026 59.9052 89.2617V84.541C59.9052 84.1305 59.8748 83.7657 59.814 83.4464C59.7532 83.1119 59.6391 82.8458 59.4719 82.6482C59.3047 82.4506 59.0614 82.3517 58.7421 82.3517C58.4989 82.3517 58.2556 82.4125 58.0124 82.5342C57.7843 82.6406 57.5791 82.7698 57.3966 82.9219V91.2457C57.5943 91.3826 57.8071 91.4966 58.0352 91.5878C58.2632 91.6638 58.5065 91.7018 58.7649 91.7018ZM69.1318 93.8683C68.174 93.8683 67.3834 93.6935 66.7601 93.3438C66.1368 92.9789 65.6655 92.4544 65.3462 91.7703C65.0421 91.0861 64.8901 90.2575 64.8901 89.2845V84.8603C64.8901 83.8873 65.0421 83.0587 65.3462 82.3745C65.6655 81.6904 66.1368 81.1735 66.7601 80.8238C67.3834 80.4589 68.174 80.2765 69.1318 80.2765C70.0897 80.2765 70.8802 80.4589 71.5036 80.8238C72.1421 81.1735 72.6134 81.6904 72.9175 82.3745C73.2368 83.0587 73.3964 83.8873 73.3964 84.8603V89.2845C73.3964 90.2575 73.2368 91.0861 72.9175 91.7703C72.6134 92.4544 72.1421 92.9789 71.5036 93.3438C70.8802 93.6935 70.0897 93.8683 69.1318 93.8683ZM69.1546 91.7246C69.5043 91.7246 69.7628 91.6258 69.93 91.4282C70.0973 91.2305 70.2037 90.9645 70.2493 90.63C70.2949 90.2803 70.3177 89.9002 70.3177 89.4897V84.6551C70.3177 84.2446 70.2949 83.8721 70.2493 83.5376C70.2037 83.2031 70.0973 82.9371 69.93 82.7394C69.7628 82.5266 69.5043 82.4201 69.1546 82.4201C68.805 82.4201 68.5465 82.5266 68.3793 82.7394C68.212 82.9371 68.098 83.2031 68.0372 83.5376C67.9916 83.8721 67.9688 84.2446 67.9688 84.6551V89.4897C67.9688 89.9002 67.9916 90.2803 68.0372 90.63C68.098 90.9645 68.212 91.2305 68.3793 91.4282C68.5465 91.6258 68.805 91.7246 69.1546 91.7246ZM75.1086 93.6631V91.6334L78.917 82.7622H75.4278V80.4817H82.201V82.2833L78.3241 91.3598H82.1782V93.6631H75.1086ZM87.9505 93.8683C86.9927 93.8683 86.2021 93.6935 85.5788 93.3438C84.9555 92.9789 84.4842 92.4544 84.1649 91.7703C83.8608 91.0861 83.7088 90.2575 83.7088 89.2845V84.8603C83.7088 83.8873 83.8608 83.0587 84.1649 82.3745C84.4842 81.6904 84.9555 81.1735 85.5788 80.8238C86.2021 80.4589 86.9927 80.2765 87.9505 80.2765C88.9084 80.2765 89.6989 80.4589 90.3223 80.8238C90.9608 81.1735 91.4321 81.6904 91.7362 82.3745C92.0555 83.0587 92.2151 83.8873 92.2151 84.8603V89.2845C92.2151 90.2575 92.0555 91.0861 91.7362 91.7703C91.4321 92.4544 90.9608 92.9789 90.3223 93.3438C89.6989 93.6935 88.9084 93.8683 87.9505 93.8683ZM87.9733 91.7246C88.323 91.7246 88.5815 91.6258 88.7487 91.4282C88.916 91.2305 89.0224 90.9645 89.068 90.63C89.1136 90.2803 89.1364 89.9002 89.1364 89.4897V84.6551C89.1364 84.2446 89.1136 83.8721 89.068 83.5376C89.0224 83.2031 88.916 82.9371 88.7487 82.7394C88.5815 82.5266 88.323 82.4201 87.9733 82.4201C87.6237 82.4201 87.3652 82.5266 87.198 82.7394C87.0307 82.9371 86.9167 83.2031 86.8559 83.5376C86.8103 83.8721 86.7875 84.2446 86.7875 84.6551V89.4897C86.7875 89.9002 86.8103 90.2803 86.8559 90.63C86.9167 90.9645 87.0307 91.2305 87.198 91.4282C87.3652 91.6258 87.6237 91.7246 87.9733 91.7246ZM94.3378 97.9961V80.4817H97.4393V81.4851C97.8193 81.1203 98.2374 80.8314 98.6935 80.6185C99.1496 80.3905 99.6286 80.2765 100.13 80.2765C100.723 80.2765 101.21 80.4133 101.59 80.687C101.97 80.9606 102.266 81.3255 102.479 81.7816C102.692 82.2225 102.836 82.7014 102.912 83.2183C103.004 83.72 103.049 84.2066 103.049 84.6779V89.1477C103.049 90.0143 102.943 90.8048 102.73 91.5194C102.532 92.234 102.206 92.8041 101.749 93.2298C101.309 93.6555 100.716 93.8683 99.9706 93.8683C99.4993 93.8683 99.0508 93.7543 98.6251 93.5263C98.2146 93.2982 97.8193 93.0093 97.4393 92.6597V97.9961H94.3378ZM98.8076 91.7018C99.142 91.7018 99.3853 91.5954 99.5373 91.3826C99.7046 91.1545 99.811 90.8581 99.8566 90.4932C99.9174 90.1131 99.9478 89.7026 99.9478 89.2617V84.541C99.9478 84.1305 99.9174 83.7657 99.8566 83.4464C99.7958 83.1119 99.6818 82.8458 99.5145 82.6482C99.3473 82.4506 99.104 82.3517 98.7848 82.3517C98.5415 82.3517 98.2983 82.4125 98.055 82.5342C97.8269 82.6406 97.6217 82.7698 97.4393 82.9219V91.2457C97.6369 91.3826 97.8498 91.4966 98.0778 91.5878C98.3059 91.6638 98.5491 91.7018 98.8076 91.7018ZM105.275 93.6631V80.4817H108.376V93.6631H105.275ZM105.275 78.3836V75.8067H108.376V78.3836H105.275ZM113.394 93.8683C112.802 93.8683 112.292 93.7163 111.867 93.4122C111.441 93.093 111.114 92.6977 110.886 92.2264C110.658 91.7399 110.544 91.2381 110.544 90.7212C110.544 89.9002 110.696 89.2085 111 88.646C111.304 88.0834 111.707 87.6121 112.209 87.232C112.71 86.8519 113.28 86.5251 113.919 86.2514C114.558 85.9625 115.204 85.7041 115.857 85.476V84.3358C115.857 83.9557 115.827 83.6364 115.766 83.378C115.721 83.1195 115.622 82.9219 115.47 82.785C115.333 82.6482 115.112 82.5798 114.808 82.5798C114.55 82.5798 114.337 82.6406 114.17 82.7622C114.018 82.8839 113.904 83.0587 113.828 83.2867C113.767 83.4996 113.729 83.7504 113.714 84.0393L113.668 84.8375L110.726 84.7235C110.772 83.2031 111.144 82.0857 111.844 81.3711C112.558 80.6413 113.638 80.2765 115.082 80.2765C116.405 80.2765 117.363 80.6413 117.956 81.3711C118.564 82.1009 118.868 83.0891 118.868 84.3358V90.4248C118.868 90.9113 118.875 91.3522 118.891 91.7475C118.921 92.1427 118.951 92.5 118.982 92.8193C119.027 93.1386 119.065 93.4198 119.096 93.6631H116.314C116.268 93.359 116.207 93.0169 116.131 92.6369C116.07 92.2416 116.025 91.9527 115.994 91.7703C115.842 92.3024 115.553 92.7889 115.128 93.2298C114.702 93.6555 114.124 93.8683 113.394 93.8683ZM114.535 91.565C114.732 91.565 114.915 91.5194 115.082 91.4282C115.265 91.3218 115.424 91.2001 115.561 91.0633C115.698 90.9265 115.797 90.8048 115.857 90.6984V87.0268C115.523 87.2244 115.204 87.4221 114.9 87.6197C114.611 87.8174 114.352 88.0378 114.124 88.2811C113.911 88.5091 113.744 88.76 113.623 89.0336C113.516 89.3073 113.463 89.6266 113.463 89.9915C113.463 90.478 113.554 90.8657 113.737 91.1545C113.934 91.4282 114.2 91.565 114.535 91.565ZM121.152 93.6631V80.4817H124.253V81.8044C124.724 81.3483 125.219 80.9834 125.735 80.7098C126.268 80.4209 126.838 80.2765 127.446 80.2765C127.993 80.2765 128.426 80.4133 128.746 80.687C129.065 80.9454 129.301 81.2951 129.453 81.736C129.605 82.1769 129.681 82.6558 129.681 83.1727V93.6631H126.579V83.7885C126.579 83.3932 126.518 83.0891 126.397 82.8762C126.275 82.6634 126.04 82.557 125.69 82.557C125.477 82.557 125.241 82.6178 124.983 82.7394C124.74 82.861 124.496 83.0131 124.253 83.1955V93.6631H121.152ZM135.944 93.8683C134.986 93.8683 134.195 93.6935 133.572 93.3438C132.949 92.9789 132.477 92.4544 132.158 91.7703C131.854 91.0861 131.702 90.2575 131.702 89.2845V84.8603C131.702 83.8873 131.854 83.0587 132.158 82.3745C132.477 81.6904 132.949 81.1735 133.572 80.8238C134.195 80.4589 134.986 80.2765 135.944 80.2765C136.902 80.2765 137.692 80.4589 138.316 80.8238C138.954 81.1735 139.425 81.6904 139.729 82.3745C140.049 83.0587 140.208 83.8873 140.208 84.8603V89.2845C140.208 90.2575 140.049 91.0861 139.729 91.7703C139.425 92.4544 138.954 92.9789 138.316 93.3438C137.692 93.6935 136.902 93.8683 135.944 93.8683ZM135.967 91.7246C136.316 91.7246 136.575 91.6258 136.742 91.4282C136.909 91.2305 137.016 90.9645 137.061 90.63C137.107 90.2803 137.13 89.9002 137.13 89.4897V84.6551C137.13 84.2446 137.107 83.8721 137.061 83.5376C137.016 83.2031 136.909 82.9371 136.742 82.7394C136.575 82.5266 136.316 82.4201 135.967 82.4201C135.617 82.4201 135.358 82.5266 135.191 82.7394C135.024 82.9371 134.91 83.2031 134.849 83.5376C134.804 83.8721 134.781 84.2446 134.781 84.6551V89.4897C134.781 89.9002 134.804 90.2803 134.849 90.63C134.91 90.9645 135.024 91.2305 135.191 91.4282C135.358 91.6258 135.617 91.7246 135.967 91.7246Z" fill="white"/>
<path d="M93.6303 5.1511C93.0589 3.98557 92.2764 2.93606 91.3225 2.05577C90.441 1.24632 89.3863 0.648962 88.2388 0.309289C87.0398 -0.0355219 85.7763 -0.0929507 84.5509 0.141658C82.5975 0.45731 80.731 1.17551 79.0698 2.25069C77.5181 3.26778 76.1065 4.48407 74.8712 5.86841C73.6885 7.18969 72.6143 8.60419 71.6589 10.0982C70.7389 11.5445 67.3434 19.2867 67.476 21.4035C67.6085 23.5204 67.6982 25.6255 67.741 27.7345C67.7839 29.8436 67.7917 31.976 67.741 34.1435C67.6904 36.311 67.6163 38.5838 67.4682 40.9618L67.4253 42.104C67.4253 42.6264 67.3356 43.0202 67.2888 43.5698C67.0289 45.7997 66.6469 48.2011 66.1427 50.7741C65.6359 53.347 65.1135 55.92 64.1389 58.181C62.9304 61.1867 62.0728 62.3718 60.3809 64.0832C58.4745 66.009 56.7242 66.7926 54.6502 67.1513C53.9719 67.2682 49.4809 63.4127 49.3523 62.6915C49.1825 61.7204 49.2426 60.7231 49.5277 59.7794C49.8104 58.8206 50.2335 57.9089 50.783 57.0739L51.5042 55.9668C52.163 55.0194 52.0344 54.9259 52.6737 54.3645C53.7536 53.3924 54.9633 52.575 56.2681 51.9358C56.2681 51.9358 56.3733 51.7175 56.0887 51.698C55.3597 51.6512 52.9037 51.9358 49.9682 54.6647C44.3506 59.7326 45.5241 67.2526 50.3581 68.6989C52.9427 69.4786 58.1549 68.8666 61.4802 65.6153C63.3008 63.8376 64.1857 61.904 65.3084 59.4792C66.4605 56.9529 67.3098 54.2991 67.8385 51.5732C68.2907 49.294 68.6455 47.0563 68.9028 44.8602L69.3589 39.0126C69.4914 36.4968 69.5512 34.0577 69.5382 31.6953C69.5109 28.5766 69.5109 28.5766 69.4563 25.415C69.3043 17.7936 88.886 -6.62597 92.0749 11.4821C92.9637 16.5383 90.2699 26.9003 85.9817 31.6563C80.828 37.3441 73.2807 40.1548 73.0857 40.954C73.0857 40.954 81.4439 38.8255 86.5742 33.3482C88.5915 31.1779 90.3281 28.7628 91.7435 26.1596C93.1498 23.5769 94.1815 20.8073 94.8076 17.934C95.4305 15.1149 95.4941 12.201 94.9948 9.35748C94.7543 7.89466 94.2943 6.47655 93.6303 5.1511Z" fill="white"/>
<path d="M62.872 54.4809C63.1523 54.9121 63.3604 55.3861 63.4879 55.8844C64.1467 58.3248 63.137 61.4942 60.6616 63.9852C60.1293 64.5243 59.5457 65.01 58.919 65.4354L58.6227 65.6304C58.4239 65.7551 58.2329 65.876 58.0262 65.9851C57.7275 66.1514 57.4204 66.3024 57.1062 66.4373C56.8996 66.5231 56.6969 66.6089 56.4942 66.679C56.1906 66.7904 55.8808 66.8841 55.5663 66.9597L54.9543 67.0884L54.6502 67.1351C54.4475 67.1624 54.2604 67.1819 54.0499 67.1897H53.7497C53.5548 67.1897 53.3599 67.1897 53.1649 67.1897L52.8804 67.1663C52.5103 67.1228 52.1449 67.0459 51.7888 66.9363C51.0929 66.7302 50.4521 66.3705 49.9137 65.8838C47.3485 63.5447 48.0035 58.8666 51.3756 55.4906C51.9078 54.9516 52.4914 54.4659 53.1182 54.0404L53.43 53.8338C53.6133 53.7169 53.8004 53.6077 53.9836 53.5024C54.2994 53.3348 54.6112 53.1789 54.927 53.0385C55.1063 52.9606 55.2818 52.8904 55.4611 52.828C55.7915 52.7051 56.1286 52.601 56.4708 52.5161C56.6735 52.4655 56.8801 52.4226 57.0789 52.3875L57.3869 52.3407C57.5623 52.3173 57.7339 52.3017 57.9054 52.29H57.9873H58.3498C58.5252 52.29 58.6968 52.29 58.8683 52.29C60.0704 52.3434 61.2179 52.8071 62.1196 53.6038C62.4068 53.8628 62.6597 54.1576 62.872 54.4809Z" fill="#FF005C"/>
</svg>
